<svg xmlns="http://www.w3.org/2000/svg" viewBox="0 0 24 30" x="0px" y="0px"><path d="m17.75,18.75c0,.41406-.33594.75-.75.75s-.75-.33594-.75-.75c0-2.34375-1.90625-4.25-4.25-4.25s-4.25,1.90625-4.25,4.25c0,.41406-.33594.75-.75.75s-.75-.33594-.75-.75c0-3.1709,2.5791-5.75,5.75-5.75s5.75,2.5791,5.75,5.75Zm-6.16602-7.12598c.12598.08398.27051.12598.41602.12598s.29004-.04199.41602-.12598l3-2c.34473-.22949.4375-.69531.20801-1.04004-.22949-.34375-.69434-.43652-1.04004-.20801l-1.83398,1.22266v-3.59863c0-.41406-.33594-.75-.75-.75s-.75.33594-.75.75v3.59863l-1.83398-1.22266c-.34473-.22852-.81055-.13574-1.04004.20801-.22949.34473-.13672.81055.20801,1.04004l3,2Zm-7.08398,6.37598h-2c-.41406,0-.75.33594-.75.75s.33594.75.75.75h2c.41406,0,.75-.33594.75-.75s-.33594-.75-.75-.75Zm16.11523-5.85059c-.20215-.35938-.6582-.4873-1.02148-.28516l-1.71191.96387c-.36035.20312-.48828.66016-.28516,1.02148.1377.24414.3916.38184.6543.38184.12402,0,.25098-.03125.36719-.09668l1.71191-.96387c.36035-.20312.48828-.66016.28516-1.02148Zm-13.75,1.7002c.20312-.36133.0752-.81836-.28516-1.02148l-1.71191-.96387c-.3623-.20215-.81836-.07422-1.02148.28516-.20312.36133-.0752.81836.28516,1.02148l1.71191.96387c.11621.06543.24316.09668.36719.09668.2627,0,.5166-.1377.6543-.38184Zm14.63477,4.15039h-2c-.41406,0-.75.33594-.75.75s.33594.75.75.75h2c.41406,0,.75-.33594.75-.75s-.33594-.75-.75-.75Z"/></svg>